 <svg
                    width="30"
                    height="29"
                    viewBox="0 0 30 29"
                    fill="none"
                    xmlns="http://www.w3.org/2000/svg"
                  >
                    <path
                      d="M9.91797 23.3754C9.91797 23.2582 9.80078 23.141 9.625 23.141C9.44922 23.141 9.33203 23.2582 9.33203 23.3754C9.33203 23.4926 9.44922 23.6097 9.625 23.5511C9.80078 23.5511 9.91797 23.4926 9.91797 23.3754ZM8.10156 23.0824C8.10156 23.1996 8.21875 23.3754 8.39453 23.3754C8.51172 23.434 8.6875 23.3754 8.74609 23.2582C8.74609 23.141 8.6875 23.0238 8.51172 22.9652C8.33594 22.9066 8.16016 22.9652 8.10156 23.0824ZM10.7383 23.0238C10.5625 23.0238 10.4453 23.141 10.4453 23.3168C10.4453 23.434 10.6211 23.4926 10.7969 23.434C10.9727 23.3754 11.0898 23.3168 11.0312 23.1996C11.0312 23.0824 10.8555 22.9652 10.7383 23.0238ZM14.5469 0.523804C6.46094 0.523804 0.25 6.73474 0.25 14.8207C0.25 21.3246 4.29297 26.891 10.1523 28.8832C10.9141 29.0004 11.1484 28.5316 11.1484 28.1801C11.1484 27.7699 11.1484 25.7777 11.1484 24.5472C11.1484 24.5472 7.04688 25.4261 6.16797 22.7894C6.16797 22.7894 5.52344 21.0902 4.58594 20.6801C4.58594 20.6801 3.23828 19.7426 4.64453 19.7426C4.64453 19.7426 6.10938 19.8597 6.92969 21.266C8.21875 23.5511 10.3281 22.9066 11.207 22.4965C11.3242 21.559 11.6758 20.9144 12.1445 20.5043C8.86328 20.1527 5.52344 19.684 5.52344 14.059C5.52344 12.4183 5.99219 11.6566 6.92969 10.6019C6.75391 10.1918 6.28516 8.66833 7.10547 6.61755C8.27734 6.26599 11.1484 8.19958 11.1484 8.19958C12.3203 7.84802 13.5508 7.73083 14.7812 7.73083C16.0703 7.73083 17.3008 7.84802 18.4727 8.19958C18.4727 8.19958 21.2852 6.2074 22.5156 6.61755C23.3359 8.66833 22.8086 10.1918 22.6914 10.6019C23.6289 11.6566 24.2148 12.4183 24.2148 14.059C24.2148 19.684 20.7578 20.1527 17.4766 20.5043C18.0039 20.973 18.4727 21.8519 18.4727 23.2582C18.4727 25.1918 18.4141 27.6527 18.4141 28.1215C18.4141 28.5316 18.707 29.0004 19.4688 28.8246C25.3281 26.891 29.3125 21.3246 29.3125 14.8207C29.3125 6.73474 22.6914 0.523804 14.5469 0.523804ZM5.93359 20.7386C5.81641 20.7972 5.875 20.973 5.93359 21.0902C6.05078 21.1488 6.16797 21.2074 6.28516 21.1488C6.34375 21.0902 6.34375 20.9144 6.22656 20.7972C6.10938 20.7386 5.99219 20.6801 5.93359 20.7386ZM5.28906 20.2699C5.23047 20.3871 5.28906 20.4457 5.40625 20.5043C5.52344 20.5629 5.64062 20.5629 5.69922 20.4457C5.69922 20.3871 5.64062 20.3285 5.52344 20.2699C5.40625 20.2113 5.34766 20.2113 5.28906 20.2699ZM7.16406 22.3793C7.10547 22.4379 7.10547 22.6136 7.28125 22.7308C7.39844 22.848 7.57422 22.9066 7.63281 22.7894C7.69141 22.7308 7.69141 22.5551 7.57422 22.4379C7.45703 22.3207 7.28125 22.2621 7.16406 22.3793ZM6.51953 21.5004C6.40234 21.559 6.40234 21.7347 6.51953 21.8519C6.63672 21.9691 6.75391 22.0277 6.87109 21.9691C6.92969 21.9105 6.92969 21.7347 6.87109 21.6176C6.75391 21.5004 6.63672 21.4418 6.51953 21.5004Z"
                      fill="#2D2E32"
                    />
                  </svg>